<svg version="1.1" xmlns="http://www.w3.org/2000/svg" xmlns:xlink="http://www.w3.org/1999/xlink" viewBox="0 0 24 24" xml:space="preserve">
<path fill="#006699" d="M14.527,3.158H24v17.685h-9.473v-1.894h7.578v-1.264h-7.578v-1.262h7.578v-1.265h-7.578v-1.262h7.578v-1.264h-7.578v-1.263
	h7.578v-1.262h-7.578V8.842h7.578V7.578h-7.578V6.315h7.578V5.053h-7.578V3.158z M0,2.841l13.896-2.21v22.737L0,21.159V2.841z
	 M11.292,8.29L9.816,8.37L8.82,14.423H8.8c-0.255-2.001-0.752-3.963-1.163-5.938L6.074,8.569l-1.315,5.718H4.732
	c-0.198-1.882-0.642-3.734-0.999-5.594L2.137,8.778l1.709,7.042l1.688,0.103l1.216-5.552l0.018-0.002
	c0.235,1.931,0.765,3.811,1.189,5.707l1.621,0.099L11.292,8.29z"/>
</svg>