<?xml version="1.0" encoding="utf-8"?>
<!-- Generator: Adobe Illustrator 15.0.0, SVG Export Plug-In . SVG Version: 6.00 Build 0)  -->
<!DOCTYPE svg PUBLIC "-//W3C//DTD SVG 1.1//EN" "http://www.w3.org/Graphics/SVG/1.1/DTD/svg11.dtd">
<svg version="1.1" id="Layer_1" xmlns="http://www.w3.org/2000/svg" xmlns:xlink="http://www.w3.org/1999/xlink" x="0px" y="0px"
	 width="425.2px" height="425.2px" viewBox="0 0 425.2 425.2" enable-background="new 0 0 425.2 425.2" xml:space="preserve">
<g>
	<g>
		<g>
			<path fill-rule="evenodd" clip-rule="evenodd" fill="#AA9961" d="M300.59,71.183c0.674,8.309,16.011,20.162,15.943,29.237
				C308.57,93.283,299.535,83.276,300.59,71.183z"/>
		</g>
		<g>
			<path fill="#AA9961" d="M234.145,72.511c13.752,3.967,19.166,16.271,29.232,23.92c-0.032,1.291-1.632,1.031-2.654,1.33
				c0.437,4.879,9.448,1.178,9.299,6.645c-2.877,2.993-4.526-1.103-9.299,0C256.237,89.397,242.737,83.399,234.145,72.511z"/>
		</g>
		<g>
			<path fill="#AA9961" d="M281.983,88.458c5.051,0.031,4.84,6.917-1.327,5.317C280.094,90.993,281.567,90.255,281.983,88.458z"/>
		</g>
		<g>
			<path fill="#AA9961" d="M246.104,92.444c1.063,0.703,2.159,1.384,3.984,1.331c-2.092,8.091-9.715,10.647-15.943,14.616
				c-4.198,7.316-8.555,14.476-15.949,18.606c-3.487,5.813-4.476,14.128-13.29,14.616
				C212.402,118.983,232.779,109.239,246.104,92.444z"/>
		</g>
		<g>
			<path fill="#AA9961" d="M277.996,99.089c4.245-1.143,4.11,2.092,6.645,2.658C283.601,104.798,276.42,103.039,277.996,99.089z"/>
		</g>
		<g>
			<path fill="#AA9961" d="M248.761,103.075c-1.966,8.665-9.237,12.022-11.962,19.934
				C228.771,114.241,241.741,107.803,248.761,103.075z"/>
		</g>
		<g>
			<path fill="#AA9961" d="M263.377,109.72c-1.301,3.128-0.431,8.432-5.314,7.975C255.593,114.833,257.863,108.655,263.377,109.72z"
				/>
		</g>
		<g>
			<path fill="#AA9961" d="M266.037,109.72c2.145-0.37,2.282,1.256,3.984,1.33c-0.164,3.385-1.928,5.15-5.314,5.314
				C263.611,112.606,266.585,112.923,266.037,109.72z"/>
		</g>
		<g>
			<path fill="#AA9961" d="M250.088,111.05c5.66-0.399,1.354,7.084,1.33,9.304C245.919,120.103,247.026,113.187,250.088,111.05z"/>
		</g>
		<g>
			<path fill="#AA9961" d="M284.641,116.364c0.196-3.306,4.506-0.389,5.314,0c0.562,2.776-0.914,3.52-1.327,5.316
				C284.96,122.252,287.38,116.728,284.641,116.364z"/>
		</g>
		<g>
			<path fill="#AA9961" d="M293.945,123.009c4.825,1.81,7.022,6.266,9.299,10.634c-5.578,0.696-7.424-2.325-11.959-2.659
				C290.523,126.682,291.687,124.3,293.945,123.009z"/>
		</g>
		<g>
			<path fill="#AA9961" d="M254.078,137.628c-3.753,10.539-16.409,2.418-15.949-6.645
				C243.467,119.593,256.466,130.9,254.078,137.628z"/>
		</g>
		<g>
			<path fill="#AA9961" d="M321.851,125.667c6.047,0.364,1.025,8.889,0,10.631c-3.894,0.68-7.494-4.22-6.645,2.658
				c-4.942,0.514-2.464-6.403-6.645-6.645c1.755-2.678,4.359-4.496,7.972-5.313c0.167,2.38-1.632,2.8-1.327,5.313
				C320.793,133.467,319.647,127.899,321.851,125.667z"/>
		</g>
		<g>
			<path fill="#AA9961" d="M281.983,128.325c4.245-1.143,4.11,2.092,6.645,2.658c0.208,3.305-2.092,4.113-2.657,6.645
				c-5.068-4.836-16.093-3.405-25.248,1.328c-1.031-3.406-1.33-7.533-3.99-9.303C261.977,124.466,277.63,137.979,281.983,128.325z"
				/>
		</g>
		<g>
			<path fill="#AA9961" d="M328.495,128.325c3.261,3.822,10.986,3.19,10.632,10.631
				C330.558,140.876,326.901,132.302,328.495,128.325z"/>
		</g>
		<g>
			<path fill="#AA9961" d="M219.525,141.614c-0.472-1.865-2.344-0.114-2.66,1.328c-3.321-4.285,4.017-9.219,5.317-13.289
				c1.811,6.902,4.764-0.071,10.632,0c0,3.098,0,6.204,0,9.303c-7.354,3.721-7.406,14.743-17.276,15.947
				C216.71,147.349,217.032,146.962,219.525,141.614z"/>
		</g>
		<g>
			<path fill="#AA9961" d="M299.26,137.628c0.548,3.199-2.426,2.887-1.33,6.645c-4.02-0.852-7.676-2.078-7.975-6.645
				C292.469,134.987,296.236,136.982,299.26,137.628z"/>
		</g>
		<g>
			<path fill="#AA9961" d="M303.244,137.628c5.511,4.334,9.803,3.415,13.289,7.973c1.441-0.33,0.899-2.642,2.66-2.658
				c11.959,8.736,19.567,13.904,34.553,19.934c1.022-5.011-1.623-6.352-1.33-10.631c-10.538,4.917-13.594-8.328-22.594-9.303
				c8.376-4.8,12.012,6.564,18.606,7.975c3.138-1.947-5.232-3.52-2.657-9.303c10.963,0.725,13.271,16.62,10.629,26.578
				c-3.976-0.01-5.581-2.391-6.645-5.316c-9.633,4.697-21.278-6.645-26.578-14.617c-6.328,0.818-16.395-0.842-22.588-3.986
				C301.152,141.741,304.39,141.868,303.244,137.628z"/>
		</g>
		<g>
			<path fill="#AA9961" d="M195.605,208.06c-2.786,12.384-6.951,30.111-19.934,27.906c-0.211-3.306,2.084-4.109,2.655-6.645
				c-0.581-1.975-1.702,0.525-3.984,0c1.377-5.713,2.602-11.572,5.314-15.944c1.893,4.14,4.099,0.839,6.645-1.331
				c-0.018-3.727-3.625,3.166-2.658-2.658C188.03,209.329,191.118,203.964,195.605,208.06z"/>
		</g>
		<g>
			<path fill="#AA9961" d="M203.577,224.007c4.966,4.786,7.475,12.011,17.278,11.959c-1.04,5.6-1.808,11.482-6.646,13.289
				c-4.714-4.149-13.85-3.868-17.277-9.3C195.715,231.21,202.342,230.31,203.577,224.007z"/>
		</g>
		<g>
			<path fill="#AA9961" d="M161.054,239.955c4.884-1.23,2.417,7.005,1.329,7.972c0.316,3.424,2.28-1.828,5.315,0
				c2.139,8.266,1.171,22.737-10.633,21.262c-0.747-1.917-2.074-3.248-3.986-3.986C157.38,258.423,159.641,249.618,161.054,239.955z
				"/>
		</g>
		<g>
			<path fill-rule="evenodd" clip-rule="evenodd" fill="#AA9961" d="M179.657,251.913c7.828-2.461,9.369,8.279,11.959,6.645
				c2.06,7.043-4.102,10.924-1.328,21.26c-6.926-1.045-9.633-6.311-17.275-6.64C172.066,262.93,181.701,263.263,179.657,251.913z"/>
		</g>
		<g>
			<g>
				<path fill="#AA9961" d="M329.822,117.694c-3.727,1.301,1.934,3.543-1.327,5.314c-6.331-2.521-5.804-11.906-14.616-11.959
					c2.373-5.533-4.236-12.229-9.305-14.619c0.217-1.559,2.42-1.117,3.987-1.328c-1.204-2.342-2.971-4.117-5.317-5.316
					c-5.514-1.521-5.18,2.799-9.299,2.658c-0.352-8.482,2.25-14.49-1.33-23.92c-2.701,5.27-5.774,10.168-9.305,14.617
					c0.677,3.756,8.481,0.377,6.645,6.645c-5.045-0.266-5.045-5.59-10.629-5.314c-4.465,1.213-0.656,2.471-1.33,6.645
					c-2.982,1.016-4.233-6.139-6.645-1.33c-3.422-0.322,1.828-2.286,0-5.314c-7.392,5.213-13.515-5.611-19.934-9.303
					c6.964,0.119,8.637,5.537,13.289,7.973c4.523-0.605,10.09-4.883,14.619-1.328c10.928-6.091,5.481-22.816,0-30.564
					c2.707-2.158,5.426-4.314,9.302-5.316c4.471,2.148,4.163,5.123,10.632,2.658c5.962,10.74,2.004,22.469,7.975,31.896
					c2.446,3.872,5.528,3.464,9.299,6.645c15.284,12.89,15.645,37.155,29.238,53.156
					C340.062,133.146,333.32,127.042,329.822,117.694z M316.533,100.42c0.067-9.075-15.27-20.929-15.943-29.237
					C299.535,83.276,308.57,93.283,316.533,100.42z"/>
			</g>
		</g>
		<g>
			<path fill-rule="evenodd" clip-rule="evenodd" fill="#AA9961" d="M287.301,107.064c12.981-11.022,24.606,6.17,33.223,11.958
				c-2.675,2.579-8.423-3.028-10.635-5.313C299.157,113.862,289.416,117.407,287.301,107.064z"/>
		</g>
		<g>
			<path fill="#AA9961" d="M274.012,105.733c6.319-1.191,11.859,3.115,9.299,6.645c-4.087,0.988-2.552-3.652-6.645-2.658
				c-3.894,1.133,1.731,3.344,0,6.645c2.391,0.166,2.807-1.629,5.317-1.328c-1.383,3.762-1.383,5.537,0,9.303
				c-6.926,2.055-5.232-4.508-7.972-6.645c-2.971,0.572-0.545,6.551-1.33,9.304c-4.559-1.02-7.477-3.679-5.314-7.976
				C276.347,118.402,271.568,112.118,274.012,105.733z"/>
		</g>
		<g>
			<path fill="#AA9961" d="M304.574,128.325c-1.031-1.186-1.427-3.002-1.33-5.316C314.485,121.319,317.488,120.784,304.574,128.325z
				"/>
		</g>
		<g>
			<path fill="#AA9961" d="M208.895,144.272c0.607,4.153-2.839,4.246-6.645,3.986c-0.532,3.186,6.047-0.738,3.985,3.986
				c-2.509,1.473-6.284,1.691-9.303,2.658c0.417,1.807,3.331,1.099,5.317,1.328c-10.511,17.401-16.752,39.062-30.567,53.156
				c-9.458,19.203-19.995,43.076-34.551,59.801c-8.768,10.08-25.596,11.864-31.895,25.246
				c-14.118,0.944-19.767,10.349-27.906,17.275c3.944,3.678,2.892,11.254,1.328,17.278c-4.816,1.274-1.346-5.73-3.984-6.645
				c-3.275,1.16-2.978,5.888-7.975,5.313c5.032-10.029,9.369-20.742,17.275-27.906c-0.146-3.247-4.394-0.283-3.986,1.328
				c10.116-12.656,37.112-26.418,51.826-34.546c-0.862-1.354-3.051-1.38-2.655-3.989c14.52-8.51,21.062-25.008,27.905-41.195
				c3.621,0.119,2.681-2.211,5.317,0c-2.276-14.811,17.406-31.074,22.589-43.854C189.979,165.153,194.59,145.479,208.895,144.272z"
				/>
		</g>
		<g>
			<path fill="#AA9961" d="M204.905,198.757c0.372-2.149-1.26-2.29-1.328-3.986c-3.503,3.217-7.84,5.168-11.961,1.328
				c3.761-12.191,8.44-23.459,18.605-29.233c1.938,12.388,2.365,29.501-9.301,37.208
				C200.545,200.593,201.401,198.356,204.905,198.757z"/>
		</g>
		<g>
			<path fill="#AA9961" d="M227.5,214.704c8.552-12.155-11.027-16.65-6.645-33.223c5.186,2.887,5.628,4.672,11.959,1.328
				c0.565,2.535,2.865,3.339,2.657,6.645c4.134-3.838,4.383-11.572,7.972-15.944c-2.259-3.456-3.105,5.647-6.645,5.313
				c-5.555-1.525-7.491-6.676-13.289-7.973c-3.612,1.213,3.539,2.471,1.33,6.645c-5.294-0.909-3.791-8.619-6.645-11.961
				c1.98-4.668,6.009-7.282,10.632-9.303c5.695,0.943,5.836,7.453,11.962,7.975c3.015-5.721-4.588-12.211-5.317-18.605
				c3.428-2.127,10.31,1.484,13.289,3.986c1.397,6.719-3.032,7.602-2.657,13.289c10.901-9.506-0.085-20.281,14.619-21.262
				c-32.531,50.792-31.913,129.883-63.79,183.385c-10.731,18.025-22.859,28.73-21.261,54.486
				c-6.623-8.305-0.644-23.672,2.655-30.563c-7.547-4.86-14.345-10.458-13.289-23.923c5.65,0.333,7.153-3.477,13.289-2.655
				c0.966,3.621-2.634,2.677-2.655,5.313c4.732-4.566,19.067,0.479,19.934-7.973c-1.115-3.758-8.158-1.577-10.634-3.985
				c2.504-6.792,2.253-16.354,3.989-23.923c9.176,2.637,15.706-0.311,21.261-3.986c-2.193-7.85-4.918-7.393-10.631-10.627
				c-0.531-6.293,2.376-9.146,1.33-15.947c15.32-2.689,23.441-11.668,23.919-31.895c-4.547-6.967-9.384-13.648-14.618-19.934
				c0.105-4.326,1.7-7.16,5.316-7.973C209.704,210.169,233.729,202.878,227.5,214.704z"/>
		</g>
	</g>
</g>
</svg>
