<svg version="1.1" xmlns="http://www.w3.org/2000/svg" xmlns:xlink="http://www.w3.org/1999/xlink" viewBox="0 0 24 24" enable-background="new 0 0 24 24" xml:space="preserve">
<path fill="#006699" d="M22.737,6.315v13.266h-8.211v-1.263h6.315v-1.266h-6.315v-1.264h6.315v-1.261h-6.315v-0.895
	c0.388,0.17,0.814,0.261,1.263,0.261c1.743,0,3.158-1.411,3.158-3.155h-3.158V7.581c-0.448,0-0.875,0.09-1.263,0.262V6.315H22.737z
	 M16.421,10.105h3.158c0-1.742-1.416-3.158-3.158-3.158V10.105z M14.526,5.055H24v11.366h-0.632V5.685h-8.842V5.055z M0,2.845
	l13.895-2.213v22.736L0,21.155V2.845z M6.468,13.422l0.697,0.014c0.806-0.048,1.751-0.379,2.187-1.063
	c0.597-0.945,0.593-2.574-0.209-3.352C8.146,8.063,6.395,8.553,5.014,8.629v7.265l0.731,0.042l0.731,0.048L6.468,13.422z
	 M6.468,9.833l0.575-0.018c0.292,0.087,0.658,0.05,0.876,0.262c0.487,0.475,0.274,1.783-0.366,2.004
	c-0.165,0.056-0.34,0.059-0.51,0.073l-0.579-0.002L6.468,9.833z"/>
</svg>